<svg width="100" height="100" viewBox="0 0 100 100" fill="none" xmlns="http://www.w3.org/2000/svg">
<rect width="100" height="100" rx="32" fill="#2C3E50"/>
<path fill-rule="evenodd" clip-rule="evenodd" d="M50.5 21.8286C47.1955 21.8286 44.5501 23.1029 38.2401 26.2501L29.4881 30.6153C26.3393 32.1857 24.1574 33.2782 22.7431 34.2027C22.6049 34.293 22.4804 34.3778 22.3683 34.4571C22.4804 34.5365 22.6049 34.6213 22.7431 34.7116C24.1574 35.6361 26.3393 36.7285 29.4881 38.299L38.2401 42.6642C44.5501 45.8112 47.1955 47.0857 50.5 47.0857C53.8045 47.0857 56.4499 45.8112 62.7601 42.6642L71.5118 38.299C74.6608 36.7285 76.8425 35.6361 78.257 34.7116C78.3951 34.6213 78.5197 34.5365 78.6316 34.4571C78.5197 34.3778 78.3951 34.293 78.257 34.2027C76.8425 33.2782 74.6608 32.1857 71.5118 30.6153L62.7601 26.2501C56.4499 23.1029 53.8045 21.8286 50.5 21.8286ZM36.8645 20.6586C42.7131 17.7406 46.202 16 50.5 16C54.798 16 58.287 17.7406 64.1356 20.6586C64.2546 20.718 64.3749 20.778 64.4958 20.8384L73.3894 25.274C76.3639 26.7576 78.7734 27.9593 80.4272 29.0405C81.2642 29.5877 82.0751 30.208 82.7005 30.9559C83.3431 31.7242 84 32.8896 84 34.4571C84 36.0247 83.3431 37.19 82.7005 37.9584C82.0751 38.7062 81.2642 39.3266 80.4272 39.8738C78.7734 40.9549 76.3639 42.1566 73.3894 43.6403L64.4958 48.0758C64.3749 48.1364 64.2546 48.1963 64.1356 48.2557C58.287 51.1735 54.798 52.9143 50.5 52.9143C46.202 52.9143 42.7131 51.1735 36.8645 48.2557C36.7453 48.1963 36.6252 48.1364 36.504 48.0758L27.6108 43.6403C24.636 42.1566 22.2267 40.955 20.5727 39.8738C19.7357 39.3266 18.9248 38.7062 18.2995 37.9584C17.6571 37.19 17 36.0247 17 34.4571C17 32.8896 17.6571 31.7242 18.2995 30.9559C18.9248 30.208 19.7357 29.5877 20.5727 29.0405C22.2267 27.9593 24.636 26.7576 27.6108 25.274L36.504 20.8384C36.6252 20.778 36.7453 20.718 36.8645 20.6586ZM20.8921 47.8244L20.9035 47.8364C20.9172 47.8516 20.9428 47.8788 20.9802 47.9176C21.055 47.9957 21.1771 48.1197 21.3466 48.2829C21.6855 48.6097 22.2132 49.0919 22.9297 49.6713C24.3627 50.83 26.5489 52.3757 29.4881 53.8418L38.2401 58.207C44.5501 61.3541 47.1955 62.6286 50.5 62.6286C53.8045 62.6286 56.4499 61.3541 62.7601 58.207L71.5118 53.8418C74.4511 52.3757 76.6375 50.83 78.0703 49.6713C78.7868 49.0919 79.3147 48.6097 79.6534 48.2829C79.8229 48.1197 79.9451 47.9957 80.0199 47.9176C80.0573 47.8788 80.0828 47.8516 80.0965 47.8364L80.1031 47.8298C80.1047 47.8279 80.1065 47.8259 80.1081 47.824C81.0691 46.7562 82.5425 46.8584 83.4026 48.054C84.2646 49.252 84.1842 51.0946 83.2234 52.1694L81.6628 50C83.2234 52.1694 83.2234 52.1694 83.2234 52.1694L83.2191 52.1741L83.2138 52.1803L83.1991 52.1962L83.1564 52.2428C83.1218 52.2801 83.0751 52.3303 83.0156 52.3917C82.8971 52.5152 82.7292 52.6854 82.5117 52.8949C82.0769 53.3137 81.4443 53.8896 80.6139 54.5614C78.9526 55.9047 76.4972 57.6331 73.2479 59.2534L64.4958 63.6187C64.3749 63.6793 64.2546 63.7391 64.1356 63.7986C58.287 66.7163 54.798 68.4571 50.5 68.4571C46.202 68.4571 42.7131 66.7163 36.8645 63.7986C36.7453 63.7391 36.6252 63.6793 36.504 63.6187L27.7521 59.2534C24.5027 57.6331 22.0475 55.9047 20.3862 54.5614C19.5555 53.8896 18.9229 53.3137 18.4882 52.8949C18.2709 52.6854 18.1029 52.5152 17.9843 52.3917C17.925 52.3303 17.8781 52.2801 17.8435 52.2428L17.8008 52.1962L17.7863 52.1803L17.7808 52.1741L17.7775 52.1706C17.7775 52.1706 17.7765 52.1694 19.3372 50L17.7775 52.1706C16.8166 51.0958 16.7355 49.252 17.5974 48.054C18.4576 46.8584 19.9311 46.7562 20.8921 47.8244ZM80.1034 63.3723C80.105 63.3704 80.1065 63.3688 80.1081 63.3669C81.0691 62.2991 82.5425 62.4013 83.4026 63.5969C84.2646 64.7949 84.1842 66.6375 83.2234 67.7122L81.6628 65.5429C83.2234 67.7123 83.2234 67.7122 83.2234 67.7122L83.2191 67.7169L83.2138 67.7231L83.1991 67.7391L83.1564 67.7857C83.1218 67.823 83.0751 67.8731 83.0156 67.9345C82.8971 68.0581 82.7292 68.2283 82.5117 68.4377C82.0769 68.8566 81.4443 69.4325 80.6139 70.1043C78.9526 71.4476 76.4972 73.176 73.2479 74.7963L64.4958 79.1615C64.3749 79.2221 64.2546 79.282 64.1356 79.3414C58.287 82.2592 54.798 84 50.5 84C46.202 84 42.7131 82.2592 36.8645 79.3414C36.7453 79.282 36.6252 79.2221 36.504 79.1615L27.7521 74.7963C24.5027 73.176 22.0475 71.4476 20.3862 70.1043C19.5555 69.4325 18.9229 68.8566 18.4882 68.4377C18.2709 68.2283 18.1029 68.0581 17.9843 67.9345C17.925 67.8731 17.8781 67.823 17.8435 67.7857L17.8008 67.7391L17.7863 67.7231L17.7808 67.7169L17.7775 67.7134C17.7775 67.7134 17.7765 67.7123 19.3372 65.5429L17.7775 67.7134C16.8166 66.6386 16.7355 64.7949 17.5974 63.5969C18.4576 62.4013 19.931 62.2991 20.892 63.3669V63.3669L20.8955 63.3707V63.3707L20.9035 63.3793C20.9172 63.3944 20.9428 63.4216 20.9802 63.4605C21.055 63.5386 21.1771 63.6626 21.3466 63.8258C21.6855 64.1525 22.2132 64.6348 22.9297 65.2141C24.3627 66.3728 26.5489 67.9186 29.4881 69.3847L38.2401 73.7499C44.5501 76.8969 47.1955 78.1714 50.5 78.1714C53.8045 78.1714 56.4499 76.8969 62.7601 73.7499L71.5118 69.3847C74.4511 67.9186 76.6375 66.3728 78.0703 65.2141C78.7868 64.6348 79.3147 64.1525 79.6534 63.8258C79.8229 63.6626 79.9451 63.5386 80.0199 63.4605C80.0573 63.4216 80.0828 63.3944 80.0965 63.3793L80.1034 63.3723Z" fill="white"/>
</svg>
