<svg width="178" height="178" viewBox="0 0 178 178" fill="none" xmlns="http://www.w3.org/2000/svg">
<g clip-path="url(#clip0_25_1488)">
<mask id="mask0_25_1488" style="mask-type:luminance" maskUnits="userSpaceOnUse" x="0" y="0" width="178" height="178">
<path d="M177.76 0H0V177.76H177.76V0Z" fill="white"/>
</mask>
<g mask="url(#mask0_25_1488)">
<path d="M86.2656 80.7194C86.261 79.3515 87.0657 78.1084 88.5307 77.6585C91.7979 76.6551 95.0824 75.6961 98.394 74.8533C100.33 74.3607 101.804 75.324 102.295 77.1178C102.761 78.8218 101.95 80.4147 100.087 80.9992C96.9042 81.9985 93.6978 82.9396 90.4631 83.7537C88.1343 84.3398 86.2731 82.895 86.2656 80.7194Z" fill="#34C759"/>
<path d="M75.5628 79.7981C77.6038 79.7923 78.8193 80.6928 79.1766 82.1275C79.5522 83.6354 78.9854 85.0893 77.5245 85.7451C76.2713 86.3077 74.9132 86.6476 73.5854 87.0308C71.421 87.6555 69.2621 88.3192 67.0657 88.8088C65.1172 89.243 63.6637 88.273 63.2074 86.4727C62.7753 84.7672 63.6354 83.2253 65.5046 82.6362C67.9904 81.8529 70.5089 81.1726 73.0174 80.4626C74.0063 80.1828 75.0064 79.9425 75.5628 79.7981Z" fill="#34C759"/>
<path d="M86.806 78.9954C84.2285 78.9591 82.6981 76.4207 83.9332 74.1619C85.5602 71.1856 87.2248 68.2297 88.8988 65.2796C89.6464 63.962 90.743 63.4739 92.1731 63.7283C93.5434 63.972 94.6671 64.9989 94.8164 66.3522C94.8836 66.961 94.767 67.6866 94.4794 68.2226C92.8251 71.3069 91.1241 74.3676 89.3725 77.3976C88.8326 78.3318 87.9984 79.0055 86.806 78.9954Z" fill="#34C759"/>
<path d="M78.8618 77.2843C78.8447 78.8198 78.0388 80.1985 76.6419 80.5386C75.88 80.7242 74.8711 80.5256 74.1538 80.1528C71.1161 78.5741 68.1158 76.9164 65.1633 75.183C63.6068 74.2693 63.193 72.3789 64.0222 70.9033C64.863 69.4071 66.6289 68.805 68.2588 69.6636C71.3603 71.2974 74.4144 73.0236 77.4571 74.7658C78.4074 75.3098 78.9181 76.2099 78.8618 77.2843Z" fill="#34C759"/>
<path d="M71.6309 95.0646C71.7944 94.5836 71.8913 94.0659 72.1321 93.6272C73.7789 90.6264 75.4399 87.6333 77.13 84.6567C77.9746 83.1694 79.9182 82.6425 81.3847 83.438C82.9895 84.3083 83.5623 86.074 82.687 87.682C81.0376 90.7119 79.3586 93.7262 77.6633 96.7307C76.9086 98.0684 75.5158 98.6011 74.0303 98.2065C72.6884 97.8499 71.718 96.5398 71.6309 95.0646Z" fill="#34C759"/>
<path d="M79.6801 76.7906C78.3857 76.7803 77.2599 76.0723 76.8504 74.73C75.8224 71.3602 74.8282 67.9766 73.9532 64.5645C73.4832 62.7312 74.5189 61.1897 76.239 60.743C77.8719 60.3188 79.5221 61.2099 80.0559 62.9678C81.0405 66.2103 81.981 69.4683 82.8414 72.7459C83.4365 75.013 81.9684 76.8087 79.6801 76.7906Z" fill="#34C759"/>
<path d="M152.14 150.302C153.134 151.473 162.452 160.812 163.977 162.713C165.292 164.353 165.613 166.276 164.64 168.158C163.665 170.042 161.831 171.189 159.683 171.108C158.129 171.049 156.66 170.234 155.666 169.058C153.406 166.383 147.242 160.091 144.973 157.423C144.824 157.247 144.661 157.084 144.441 156.847C144.214 157.259 144.007 157.598 143.834 157.954C142.181 161.354 140.535 164.758 138.883 168.16C138.253 169.458 137.165 169.877 135.828 169.333C134.667 168.861 133.994 167.969 133.662 166.784C132.279 161.849 130.895 156.914 129.506 151.98C127.368 144.386 125.23 136.792 123.082 129.201C122.786 128.158 122.631 127.12 122.977 126.065C123.544 124.334 125.184 123.558 127.187 124.254C128.676 124.771 130.092 125.504 131.524 126.175C142.203 131.178 152.875 136.194 163.556 141.193C164.713 141.734 165.571 142.494 165.878 143.777C166.222 145.216 165.637 146.249 164.227 146.666C160.648 147.723 157.067 148.774 153.489 149.834C153.065 149.96 152.653 150.123 152.14 150.302Z" fill="#2C3E50"/>
</g>
</g>
<defs>
<clipPath id="clip0_25_1488">
<rect width="177.76" height="177.76" fill="white"/>
</clipPath>
</defs>
</svg>
