<svg width="76" height="76" viewBox="0 0 76 76" fill="none" xmlns="http://www.w3.org/2000/svg">
<path d="M76 38C76 58.9868 58.9868 76 38 76C17.0132 76 0 58.9868 0 38C0 17.0132 17.0132 0 38 0C58.9868 0 76 17.0132 76 38Z" fill="#4CAF4F"/>
<path d="M52.4925 26.7079C52.6072 25.332 51.5848 24.1236 50.2089 24.0089L27.7866 22.1396C26.4107 22.0249 25.2023 23.0473 25.0876 24.4233C24.9729 25.7992 25.9953 27.0076 27.3712 27.1223L47.3021 28.7839L45.6405 48.7148C45.5258 50.0907 46.5482 51.2991 47.9242 51.4138C49.3001 51.5285 50.5085 50.5061 50.6232 49.1302L52.4925 26.7079ZM23.9995 48.5001L25.6143 50.4086L51.6159 28.4088L50.0012 26.5002L48.3864 24.5917L22.3847 46.5916L23.9995 48.5001Z" fill="#F7F7F6"/>
</svg>
