<svg width="85" height="85" viewBox="0 0 85 85" fill="none" xmlns="http://www.w3.org/2000/svg">
<g clip-path="url(#clip0_170_2882)">
<path d="M85 42.5C85 65.9721 65.9721 85 42.5 85C19.0279 85 0 65.9721 0 42.5C0 19.0279 19.0279 0 42.5 0C65.9721 0 85 19.0279 85 42.5Z" fill="#455A64"/>
<path d="M58.4156 29.8458C58.5303 28.4698 57.5078 27.2614 56.1319 27.1467L33.7097 25.2774C32.3337 25.1627 31.1253 26.1851 31.0106 27.5611C30.8959 28.937 31.9183 30.1454 33.2943 30.2601L53.2251 31.9217L51.5636 51.8526C51.4488 53.2285 52.4713 54.4369 53.8472 54.5516C55.2232 54.6663 56.4316 53.6439 56.5463 52.268L58.4156 29.8458ZM26.8434 54.2432L28.4582 56.1517L57.539 31.5466L55.9242 29.6381L54.3094 27.7295L25.2286 52.3347L26.8434 54.2432Z" fill="#F7F7F6"/>
</g>
<defs>
<clipPath id="clip0_170_2882">
<rect width="85" height="85" fill="white"/>
</clipPath>
</defs>
</svg>
