<svg width="100" height="100" viewBox="0 0 100 100" fill="none" xmlns="http://www.w3.org/2000/svg">
<rect width="100" height="100" rx="32" fill="#34C759"/>
<path d="M58.25 69.7778L64.5 76L77 63.5556M52 20H37C33.4997 20 31.7495 20 30.4126 20.6782C29.2365 21.2747 28.2804 22.2266 27.6812 23.3974C27 24.7284 27 26.4708 27 29.9556V66.0444C27 69.5292 27 71.2717 27.6812 72.6027C28.2804 73.7734 29.2365 74.7254 30.4126 75.3218C31.7495 76 33.4997 76 37 76H47.3125M52 20L70.75 38.6667M52 20V33.6889C52 35.4313 52 36.3025 52.3406 36.968C52.6403 37.5534 53.1181 38.0293 53.7062 38.3276C54.3747 38.6667 55.2497 38.6667 57 38.6667H70.75M70.75 38.6667V52.3556M39.5 63.5556H47.3125M39.5 51.1111H58.25M39.5 38.6667H42.625" stroke="white" stroke-width="5" stroke-linecap="round" stroke-linejoin="round"/>
</svg>
