<svg width="708" height="629" viewBox="0 0 708 629" fill="none" xmlns="http://www.w3.org/2000/svg">
<path d="M603.507 628.534C603.507 628.743 488.427 628.923 346.515 628.923C204.603 628.923 89.4727 628.743 89.4727 628.534C89.4727 628.324 204.537 628.144 346.515 628.144C488.493 628.144 603.507 628.339 603.507 628.534Z" fill="#263238"/>
<path d="M491.377 444.929C465.772 428.747 459.972 398.706 460.983 371.694C461.148 367.195 460.602 362.426 462.971 358.481C465.341 354.537 470.877 351.822 475.335 353.712C479.03 355.287 480.638 359.186 482.71 362.411C485.474 366.706 489.524 370.205 494.393 372.504C497.559 374.004 501.486 374.904 504.619 373.344C508.927 371.199 509.425 365.845 509.391 361.346C509.391 352.977 509.336 344.618 509.226 336.269C508.928 331.786 509.432 327.289 510.717 322.951C512.259 318.692 515.689 314.747 520.379 313.547C525.069 312.348 530.919 314.822 531.98 319.202C532.163 321.057 532.212 322.92 532.129 324.781C532.262 326.656 533.223 328.71 535.162 329.28C537.101 329.85 539.123 328.545 540.614 327.226C545.719 322.726 549.199 316.862 552.431 311.073C555.662 305.284 558.828 299.329 563.468 294.395C568.108 289.461 574.522 285.546 581.698 285.171C588.874 284.796 596.348 288.786 598.138 295.085C599.928 301.384 595.868 307.818 591.509 312.932C584.932 320.524 577.179 327.217 568.49 332.805C566.793 333.643 565.44 334.952 564.628 336.539C563.551 339.539 566.683 342.538 569.948 343.483C573.644 344.593 577.654 344.248 581.549 344.668C585.443 345.088 589.587 346.618 591.062 349.917C593.083 354.507 588.841 359.306 584.681 362.456C576.329 368.755 566.844 373.711 556.64 377.109C552.994 378.308 549.166 379.373 546.216 381.683C543.266 383.993 541.509 388.027 543.283 391.192C545.056 394.356 549.613 395.361 553.442 394.716C557.27 394.071 560.667 392.212 564.313 390.967C571.125 388.642 579.908 389.062 584.201 394.386C585.53 396.22 586.372 398.308 586.66 400.487C586.947 402.665 586.673 404.874 585.858 406.94C584.199 411.051 581.646 414.82 578.35 418.023C567.496 429.759 553.393 438.677 537.482 443.865C521.688 448.814 507.055 450.164 491.36 444.959" fill="#4CAF4F"/>
<path d="M590.845 288.876C590.845 288.876 590.696 289.026 590.365 289.296L588.89 290.48C587.597 291.53 585.691 293.06 583.288 295.085C576.475 300.81 570.148 306.991 564.362 313.577C560.667 317.732 556.838 322.441 552.761 327.555C548.685 332.67 544.475 338.189 540.299 344.053C535.846 350.237 531.769 356.636 528.085 363.221C526.162 366.655 524.472 370.24 522.732 373.899L517.594 385.072C510.822 399.147 504.924 413.552 499.928 428.222C495.903 440.224 493.129 452.541 491.641 465.012C490.678 473.427 490.522 481.903 491.177 490.343C491.442 493.343 491.691 495.637 491.923 497.197C492.023 497.947 492.089 498.547 492.155 498.982V499.597C492.084 499.402 492.034 499.201 492.006 498.997C491.923 498.562 491.824 497.977 491.691 497.227C491.393 495.727 491.078 493.358 490.78 490.358C489.98 481.902 490.035 473.398 490.945 464.952C492.341 452.428 495.054 440.053 499.049 427.997C504.004 413.286 509.886 398.844 516.666 384.743L521.936 373.614C523.676 369.97 525.383 366.355 527.322 362.906C531.032 356.301 535.143 349.887 539.636 343.693C543.878 337.694 548.154 332.265 552.181 327.195C556.208 322.126 560.103 317.387 563.782 313.247C569.627 306.679 576.039 300.541 582.957 294.89C585.41 292.895 587.365 291.395 588.691 290.391L590.232 289.266C590.421 289.117 590.627 288.986 590.845 288.876Z" fill="#263238"/>
<path d="M527.538 362.876C527.304 362.258 527.143 361.62 527.058 360.971C526.792 359.727 526.494 357.972 526.146 355.692C525.433 351.193 524.704 345.029 523.925 338.204C523.146 331.38 522.268 325.201 521.539 320.747C521.158 318.527 520.826 316.742 520.594 315.498C520.413 314.86 520.319 314.206 520.312 313.548C520.598 314.149 520.804 314.778 520.926 315.423C521.29 316.652 521.705 318.422 522.169 320.657C523.113 325.156 524.041 331.275 524.82 338.114C525.599 344.954 526.262 350.953 526.776 355.617C527.024 357.717 527.24 359.502 527.406 360.926C527.534 361.569 527.579 362.224 527.538 362.876Z" fill="#263238"/>
<path d="M591.313 352.107C590.507 352.266 589.685 352.356 588.86 352.377C587.203 352.512 584.85 352.692 581.933 352.992C576.099 353.562 568.078 354.611 559.278 356.111C550.478 357.611 542.573 359.306 536.888 360.611C534.054 361.27 531.767 361.87 530.259 362.275C529.454 362.534 528.621 362.715 527.773 362.815C528.539 362.467 529.338 362.181 530.16 361.96C531.718 361.465 533.972 360.775 536.789 360.041C542.44 358.541 550.345 356.756 559.179 355.226C566.661 353.931 574.211 352.98 581.8 352.377C584.734 352.152 587.104 352.062 588.761 352.032C589.612 351.979 590.467 352.004 591.313 352.107Z" fill="#263238"/>
<path d="M499.865 426.947C499.688 426.73 499.543 426.493 499.434 426.242L498.34 424.157C497.396 422.342 496.12 419.658 494.595 416.373C491.512 409.774 487.585 400.535 483.408 390.277C479.232 380.018 475.387 370.78 472.47 364.105C471.045 360.866 469.868 358.211 468.99 356.232L468.062 354.087C467.933 353.839 467.844 353.577 467.797 353.307C467.974 353.524 468.118 353.761 468.228 354.012L469.322 356.097C470.25 357.911 471.542 360.596 473.067 363.88C476.149 370.48 480.077 379.718 484.254 389.977C488.43 400.235 492.275 409.474 495.191 416.148C496.617 419.388 497.793 422.042 498.655 424.022C499.036 424.877 499.351 425.522 499.6 426.167C499.728 426.414 499.818 426.677 499.865 426.947Z" fill="#263238"/>
<path d="M584.514 402.245C584.248 402.383 583.964 402.489 583.668 402.56L581.216 403.31L572.15 405.965C564.494 408.214 553.92 411.424 542.32 414.963C530.719 418.503 520.096 421.652 512.389 423.752C508.544 424.817 505.412 425.627 503.241 426.167L500.739 426.752C500.448 426.835 500.148 426.891 499.844 426.917C500.109 426.779 500.393 426.673 500.689 426.602L503.142 425.852L512.207 423.197C519.864 420.948 530.437 417.738 542.038 414.198C553.639 410.659 564.245 407.509 571.951 405.41C575.813 404.345 578.928 403.535 581.116 402.995L583.619 402.41C583.91 402.326 584.21 402.271 584.514 402.245Z" fill="#263238"/>
<path d="M549.981 38.4399L541.446 41.1995L537.783 31.1059C531.055 12.4935 509.61 2.60981 489.905 8.89395C470.2 15.1781 459.709 35.5903 466.438 54.2027L470.1 64.2963L461.532 67.071C458.265 68.2178 455.612 70.4599 454.124 73.3313C452.637 76.2027 452.429 79.4824 453.544 82.4888L477.293 148.165C477.786 149.653 478.604 151.036 479.7 152.233C480.795 153.429 482.145 154.414 483.67 155.129C485.194 155.844 486.861 156.274 488.573 156.394C490.285 156.515 492.006 156.322 493.634 155.829L582.082 127.198C585.392 126.053 588.083 123.791 589.588 120.887C591.094 117.984 591.296 114.666 590.153 111.63L566.388 45.9539C565.882 44.4697 565.051 43.093 563.944 41.9059C562.838 40.7188 561.478 39.7455 559.947 39.0442C558.416 38.343 556.744 37.928 555.032 37.8242C553.32 37.7204 551.602 37.9298 549.981 38.4399ZM482.563 48.9384C480.749 44.0989 481.075 38.8118 483.472 34.1848C485.869 29.5577 490.152 25.9498 495.423 24.1169C498.026 23.3109 500.782 22.9877 503.526 23.1666C506.27 23.3454 508.946 24.0226 511.394 25.1578C513.843 26.293 516.013 27.8629 517.777 29.7738C519.54 31.6847 520.86 33.8975 521.658 36.2802L525.304 46.3738L486.209 59.0321L482.563 48.9384ZM532.281 107.22L538.347 123.988C538.458 124.324 538.422 124.686 538.246 124.999C538.07 125.312 537.768 125.552 537.402 125.668L528.9 128.413C528.562 128.497 528.2 128.461 527.891 128.31C527.583 128.159 527.35 127.905 527.243 127.603L521.128 110.91C517.756 110.744 514.52 109.649 511.855 107.773C509.189 105.897 507.22 103.328 506.212 100.411C504.771 96.5553 505.034 92.3441 506.946 88.6595C508.858 84.9749 512.271 82.1027 516.471 80.6441C518.544 80.003 520.739 79.7462 522.925 79.889C525.11 80.0319 527.241 80.5714 529.191 81.4756C531.142 82.3797 532.871 83.6298 534.276 85.1515C535.68 86.6732 536.732 88.4353 537.369 90.3328C538.435 93.2957 538.523 96.4757 537.623 99.4833C536.722 102.491 534.871 105.195 532.298 107.265L532.281 107.22Z" fill="#4CAF4F"/>
<path d="M541.064 41.0197C541.064 41.2297 525.238 46.614 505.549 53.0181C485.861 59.4222 469.802 64.5665 469.719 64.4165C469.636 64.2665 485.546 58.8373 505.251 52.4182C524.956 45.9991 540.982 40.8248 541.064 41.0197Z" fill="#263238"/>
<path d="M559.859 43.7791C559.932 43.9092 559.993 44.0447 560.041 44.184C560.174 44.484 560.323 44.8739 560.522 45.3538C560.952 46.4487 561.549 47.9635 562.295 49.8532L568.659 66.6209C571.31 73.7299 574.476 82.1588 577.989 91.5175C579.646 96.2118 581.602 101.101 583.425 106.245C584.401 108.896 584.822 111.689 584.668 114.479C584.527 115.931 584.071 117.343 583.326 118.634C582.529 119.921 581.466 121.056 580.193 121.978C577.633 123.67 574.791 124.981 571.774 125.863L563.24 128.637L547.081 133.872L519.72 142.69L501.241 148.57L496.269 150.069L494.944 150.459C494.802 150.516 494.651 150.552 494.496 150.564C494.496 150.564 494.629 150.564 494.91 150.384L496.203 149.919L501.175 148.225L519.554 142.106L546.866 133.107L562.991 127.827L571.526 125.038C574.457 124.192 577.216 122.921 579.696 121.273C580.88 120.418 581.87 119.364 582.613 118.169C583.315 116.975 583.738 115.663 583.856 114.314C584.009 111.626 583.604 108.935 582.663 106.38C580.873 101.281 578.984 96.3468 577.277 91.6525C573.829 82.2788 570.647 73.8199 568.128 66.7109C565.609 59.6019 563.488 53.8877 562.03 49.8682C561.334 47.9035 560.803 46.3737 560.372 45.2639L559.975 44.064C559.925 43.9731 559.886 43.8776 559.859 43.7791Z" fill="#263238"/>
<path d="M513.188 23.0968C513.188 23.0968 512.309 22.7069 510.685 22.107C508.37 21.302 505.922 20.8558 503.443 20.7872C499.769 20.6731 496.112 21.2981 492.737 22.6169C488.632 24.2591 485.123 26.9154 482.611 30.2809C480.082 33.6367 478.725 37.6024 478.716 41.6643C478.751 44.9934 479.309 48.3011 480.374 51.4879C481.235 54.2176 482.13 56.3923 482.727 57.9071C483.079 58.6765 483.367 59.4686 483.589 60.2767C483.118 59.5574 482.724 58.799 482.412 58.012C481.733 56.5123 480.755 54.3825 479.794 51.6379C478.614 48.4177 477.971 45.0561 477.888 41.6643C477.844 37.449 479.232 33.3233 481.865 29.8459C484.465 26.3576 488.118 23.6191 492.389 21.957C495.869 20.6309 499.64 20.046 503.41 20.2472C505.942 20.364 508.43 20.8977 510.751 21.822C511.372 22.0811 511.97 22.3819 512.541 22.7219C512.777 22.8156 512.995 22.9421 513.188 23.0968Z" fill="#263238"/>
<path d="M513.951 81.784C514.216 81.6389 514.493 81.5135 514.78 81.4091C515.609 81.0703 516.468 80.7944 517.348 80.5842C518.745 80.2111 520.186 79.9895 521.641 79.9242C523.619 79.828 525.599 80.0985 527.458 80.7191C531.7 82.069 535.595 85.9834 537.517 91.2177C538.439 94.0267 538.439 97.0176 537.517 99.8265C536.495 102.875 534.663 105.651 532.181 107.91L532.28 107.505C534.485 112.98 536.888 118.919 539.374 125.113L539.523 125.488L539.108 125.623L535.313 126.763L527.027 129.267L526.613 129.387L526.48 129.013C524.21 122.803 521.724 117.014 519.851 111.33L520.215 111.585C516.976 111.341 513.886 110.241 511.333 108.42C509.022 106.81 507.127 104.762 505.781 102.421C504.566 100.345 503.961 98.0208 504.024 95.6721C504.101 93.2716 504.763 90.9161 505.964 88.7744C507.164 86.6327 508.873 84.7577 510.968 83.2838C511.83 82.6503 512.798 82.1441 513.835 81.784C512.899 82.2867 511.992 82.8323 511.117 83.4188C508.816 85.1808 507.053 87.4478 505.996 90.0029C505.089 91.9296 504.665 94.014 504.754 96.1066C504.843 98.1993 505.443 100.248 506.51 102.106C507.834 104.359 509.683 106.324 511.929 107.865C514.366 109.596 517.311 110.639 520.398 110.865H520.68L520.762 111.09C522.585 116.669 525.088 122.503 527.391 128.743L526.845 128.503L535.131 125.998L538.909 124.843L538.644 125.353C536.175 119.159 533.789 113.205 531.601 107.73V107.505L531.8 107.325C534.209 105.16 536.006 102.5 537.037 99.5716C537.916 96.8846 537.916 94.0247 537.037 91.3377C535.23 86.2984 531.502 82.4739 527.458 81.1241C525.668 80.4995 523.757 80.2087 521.84 80.2692C520.408 80.2989 518.985 80.475 517.597 80.7941C515.128 81.3491 513.968 81.859 513.951 81.784Z" fill="#263238"/>
<path d="M462.725 514.835L297.181 514.145C287.621 514.097 278.473 510.618 271.745 504.47C265.018 498.323 261.261 490.011 261.301 481.359L263.058 105.796C263.077 101.509 264.03 97.2686 265.862 93.3157C267.693 89.3628 270.368 85.7753 273.732 82.7584C277.097 79.7414 281.085 77.3541 285.47 75.7329C289.855 74.1118 294.549 73.2885 299.286 73.3102L464.813 74.0001C474.374 74.0438 483.524 77.5195 490.254 83.6639C496.985 89.8083 500.745 98.1189 500.71 106.771L498.953 482.319C498.934 486.607 497.981 490.849 496.15 494.804C494.319 498.758 491.645 502.348 488.281 505.367C484.916 508.386 480.928 510.776 476.543 512.401C472.159 514.025 467.463 514.852 462.725 514.835Z" fill="#455A64"/>
<path d="M464.564 86.9129H432.479C431.432 86.9305 430.399 87.1345 429.439 87.5134C428.48 87.8922 427.612 88.4385 426.885 89.1209C426.159 89.8034 425.588 90.6087 425.206 91.4908C424.823 92.3729 424.637 93.3145 424.657 94.2619V99.5262C424.676 100.473 424.49 101.414 424.107 102.295C423.724 103.176 423.153 103.981 422.427 104.662C421.7 105.343 420.832 105.888 419.872 106.265C418.913 106.642 417.88 106.845 416.834 106.86L354.289 106.605C352.173 106.554 350.166 105.745 348.709 104.356C347.252 102.967 346.463 101.111 346.516 99.1962V93.932C346.57 92.0196 345.784 90.166 344.33 88.7773C342.876 87.3886 340.873 86.5779 338.76 86.523H327.474L299.384 86.403C292.702 86.367 286.277 88.7284 281.516 92.9702C276.754 97.212 274.043 102.988 273.978 109.035L272.321 475.615C272.305 478.614 272.943 481.587 274.197 484.364C275.452 487.14 277.298 489.666 279.631 491.797C281.964 493.928 284.738 495.622 287.795 496.783C290.851 497.943 294.13 498.548 297.445 498.561L462.641 499.251C465.958 499.265 469.245 498.688 472.315 497.552C475.385 496.416 478.178 494.744 480.534 492.631C482.891 490.518 484.764 488.006 486.047 485.238C487.33 482.471 487.999 479.501 488.014 476.499L489.671 109.92C489.711 103.856 487.088 98.0267 482.38 93.7125C477.672 89.3983 471.264 86.9526 464.564 86.9129Z" fill="white"/>
<path d="M442.343 450.343L319.506 449.863C318.23 449.863 317.202 448.604 317.219 447.074L317.352 417.993C317.352 416.493 318.396 415.203 319.672 415.203L442.508 415.713C443.215 415.824 443.848 416.177 444.274 416.7C444.7 417.222 444.887 417.874 444.795 418.518L444.679 447.569C444.679 449.113 443.619 450.358 442.343 450.343Z" fill="#4CAF4F"/>
<path d="M354.585 429.878C354.291 429.878 354.008 429.831 353.736 429.736C353.468 429.638 353.261 429.514 353.114 429.363L353.278 429.04C353.417 429.176 353.604 429.291 353.838 429.385C354.076 429.476 354.325 429.521 354.585 429.521C354.834 429.521 355.036 429.491 355.191 429.431C355.349 429.366 355.464 429.282 355.536 429.176C355.612 429.07 355.649 428.953 355.649 428.825C355.649 428.67 355.604 428.546 355.513 428.451C355.427 428.357 355.312 428.283 355.168 428.231C355.025 428.174 354.866 428.125 354.693 428.084C354.519 428.042 354.346 427.999 354.172 427.953C353.999 427.904 353.838 427.84 353.691 427.761C353.548 427.682 353.431 427.578 353.34 427.45C353.253 427.318 353.21 427.146 353.21 426.935C353.21 426.738 353.261 426.559 353.363 426.397C353.468 426.231 353.629 426.099 353.844 426.001C354.059 425.899 354.334 425.848 354.67 425.848C354.893 425.848 355.114 425.88 355.332 425.944C355.551 426.004 355.74 426.089 355.898 426.199L355.757 426.533C355.587 426.419 355.406 426.336 355.214 426.284C355.025 426.231 354.842 426.204 354.664 426.204C354.427 426.204 354.231 426.236 354.076 426.301C353.921 426.365 353.806 426.452 353.731 426.561C353.659 426.667 353.623 426.787 353.623 426.923C353.623 427.078 353.666 427.202 353.753 427.297C353.844 427.391 353.961 427.465 354.104 427.518C354.251 427.57 354.412 427.618 354.585 427.659C354.759 427.701 354.931 427.746 355.1 427.795C355.274 427.844 355.432 427.908 355.576 427.987C355.723 428.063 355.84 428.165 355.927 428.293C356.017 428.421 356.063 428.589 356.063 428.797C356.063 428.989 356.01 429.168 355.904 429.334C355.798 429.497 355.636 429.629 355.417 429.731C355.202 429.829 354.925 429.878 354.585 429.878ZM356.975 429.844V425.882H357.394V429.844H356.975ZM358.683 429.844V425.882H359.028L361.762 429.323H361.581V425.882H361.994V429.844H361.649L358.921 426.403H359.102V429.844H358.683ZM365.025 429.878C364.723 429.878 364.444 429.829 364.187 429.731C363.934 429.629 363.714 429.487 363.525 429.306C363.34 429.125 363.195 428.912 363.089 428.666C362.987 428.421 362.936 428.153 362.936 427.863C362.936 427.572 362.987 427.304 363.089 427.059C363.195 426.814 363.342 426.601 363.531 426.419C363.719 426.238 363.94 426.099 364.193 426.001C364.449 425.899 364.729 425.848 365.031 425.848C365.332 425.848 365.608 425.895 365.857 425.989C366.11 426.084 366.325 426.227 366.502 426.419L366.242 426.686C366.076 426.519 365.893 426.401 365.693 426.329C365.493 426.257 365.278 426.221 365.047 426.221C364.802 426.221 364.576 426.263 364.368 426.346C364.165 426.425 363.985 426.54 363.831 426.691C363.68 426.838 363.561 427.012 363.474 427.212C363.391 427.408 363.349 427.625 363.349 427.863C363.349 428.097 363.391 428.314 363.474 428.514C363.561 428.714 363.68 428.889 363.831 429.04C363.985 429.187 364.165 429.302 364.368 429.385C364.576 429.465 364.8 429.504 365.042 429.504C365.268 429.504 365.481 429.47 365.681 429.402C365.885 429.334 366.072 429.219 366.242 429.057L366.479 429.374C366.291 429.54 366.07 429.666 365.817 429.753C365.564 429.836 365.3 429.878 365.025 429.878ZM366.078 429.323V427.863H366.479V429.374L366.078 429.323ZM370.742 429.878C370.237 429.878 369.839 429.732 369.548 429.442C369.257 429.151 369.112 428.721 369.112 428.151V425.882H369.531V428.134C369.531 428.602 369.637 428.948 369.848 429.17C370.059 429.393 370.357 429.504 370.742 429.504C371.131 429.504 371.431 429.393 371.642 429.17C371.854 428.948 371.959 428.602 371.959 428.134V425.882H372.367V428.151C372.367 428.721 372.221 429.151 371.931 429.442C371.644 429.732 371.248 429.878 370.742 429.878ZM373.629 429.844V425.882H375.112C375.448 425.882 375.736 425.937 375.978 426.046C376.219 426.152 376.404 426.306 376.532 426.51C376.664 426.71 376.73 426.953 376.73 427.24C376.73 427.519 376.664 427.761 376.532 427.965C376.404 428.165 376.219 428.319 375.978 428.429C375.736 428.538 375.448 428.593 375.112 428.593H373.861L374.048 428.395V429.844H373.629ZM374.048 428.429L373.861 428.225H375.1C375.497 428.225 375.797 428.14 376 427.97C376.208 427.797 376.312 427.553 376.312 427.24C376.312 426.923 376.208 426.678 376 426.504C375.797 426.331 375.497 426.244 375.1 426.244H373.861L374.048 426.046V428.429Z" fill="#E8E8E3"/>
<path d="M344.007 194.674L301.383 194.499L301.347 201.578L343.972 201.753L344.007 194.674Z" fill="#4CAF4F"/>
<path opacity="0.1" d="M344.007 194.674L301.383 194.499L301.347 201.578L343.972 201.753L344.007 194.674Z" fill="black"/>
<path d="M468.958 238.137C469.293 238.106 469.622 238.036 469.936 237.927C470.395 237.765 470.793 237.489 471.087 237.131C471.38 236.772 471.555 236.347 471.593 235.902C471.593 233.518 471.593 230.038 471.593 225.569C471.593 223.334 471.593 220.829 471.593 218.07C471.593 217.395 471.593 216.69 471.593 215.985C471.701 215.301 471.537 214.605 471.129 214.02C470.901 213.74 470.604 213.512 470.262 213.353C469.92 213.194 469.542 213.11 469.157 213.105H466.572H442.624L304.01 212.641C303.656 212.635 303.305 212.707 302.987 212.851C302.67 212.994 302.395 213.205 302.187 213.465C301.787 214.052 301.634 214.75 301.756 215.43C301.756 216.93 301.756 218.43 301.756 219.93C301.756 222.929 301.756 225.929 301.756 228.928C301.756 230.428 301.756 231.928 301.756 233.428C301.688 234.126 301.688 234.829 301.756 235.527C301.844 235.827 302.005 236.104 302.229 236.338C302.454 236.572 302.734 236.757 303.049 236.877C303.376 236.995 303.725 237.051 304.077 237.042H312.512L349.32 237.222L411.633 237.567L453.645 237.867L465.064 237.987H468.03C468.71 237.987 469.041 237.987 469.041 237.987H468.03H465.064H453.645H411.633L349.32 237.807L312.512 237.672H304.077C303.612 237.689 303.149 237.618 302.718 237.462C302.281 237.294 301.893 237.037 301.583 236.712C301.273 236.387 301.049 236.003 300.928 235.587C300.832 235.194 300.798 234.79 300.828 234.388V233.278C300.828 231.778 300.828 230.278 300.828 228.778C300.828 225.779 300.828 222.779 300.828 219.78C300.828 218.28 300.828 216.78 300.828 215.28C300.797 214.881 300.797 214.48 300.828 214.08C300.89 213.639 301.079 213.22 301.375 212.865C301.661 212.503 302.04 212.209 302.478 212.008C302.917 211.807 303.403 211.705 303.894 211.711L442.508 212.401L466.456 212.551H469.041C469.497 212.551 469.945 212.651 470.349 212.841C470.753 213.032 471.1 213.308 471.361 213.645C471.828 214.297 472.017 215.081 471.892 215.85C471.892 216.555 471.892 217.26 471.892 217.935C471.892 220.664 471.892 223.169 471.892 225.434C471.892 229.933 471.775 233.383 471.742 235.782C471.702 236.244 471.517 236.685 471.208 237.054C470.9 237.424 470.482 237.706 470.002 237.867C469.689 238.043 469.327 238.136 468.958 238.137Z" fill="#E0E0E0"/>
<path d="M392.145 220.17H314.188V226.784H392.145V220.17Z" fill="#4CAF4F"/>
<path opacity="0.2" d="M392.145 220.17H314.188V226.784H392.145V220.17Z" fill="white"/>
<path d="M343.714 259.253L301.09 259.078L301.054 266.157L343.679 266.332L343.714 259.253Z" fill="#4CAF4F"/>
<path opacity="0.1" d="M343.714 259.253L301.09 259.078L301.054 266.157L343.679 266.332L343.714 259.253Z" fill="black"/>
<path d="M467.878 302.719C468.213 302.682 468.545 302.627 468.872 302.554C469.335 302.421 469.761 302.199 470.121 301.904C470.481 301.609 470.768 301.248 470.96 300.844C471.221 300.239 471.323 299.587 471.259 298.939C471.259 298.22 471.259 297.44 471.259 296.57C471.259 294.83 471.259 292.85 471.259 290.571V281.047C471.338 280.357 471.169 279.663 470.778 279.067C470.369 278.456 469.726 278.002 468.972 277.792C468.146 277.659 467.306 277.619 466.469 277.672H442.621L304.488 277.207C303.745 277.209 303.028 277.455 302.47 277.899C301.912 278.343 301.551 278.955 301.455 279.622C301.455 281.047 301.455 282.622 301.455 284.121C301.455 287.121 301.455 290.121 301.455 293.12C301.455 294.62 301.455 296.12 301.455 297.62C301.393 298.321 301.427 299.026 301.554 299.719C301.761 300.327 302.187 300.855 302.764 301.219C303.376 301.571 304.096 301.739 304.819 301.699H307.123H311.912L348.588 301.864L410.686 302.209L452.548 302.509L463.933 302.629H452.548H410.686L348.555 302.569L311.879 302.449H304.67C303.774 302.497 302.884 302.281 302.135 301.834C301.38 301.361 300.83 300.667 300.577 299.869C300.428 299.107 300.384 298.332 300.444 297.56C300.444 296.06 300.444 294.56 300.444 293.06C300.444 290.061 300.444 287.061 300.444 284.061C300.444 282.562 300.444 281.062 300.444 279.562C300.565 278.704 301.027 277.916 301.744 277.345C302.461 276.773 303.383 276.458 304.339 276.458L442.472 277.147L466.32 277.312C467.208 277.263 468.099 277.319 468.972 277.477C469.833 277.732 470.559 278.266 471.01 278.977C471.439 279.638 471.624 280.405 471.54 281.167C471.54 281.872 471.54 282.562 471.54 283.252C471.54 285.966 471.54 288.456 471.54 290.751C471.54 293.045 471.54 294.98 471.54 296.75C471.54 297.605 471.54 298.399 471.54 299.134C471.601 299.805 471.481 300.479 471.192 301.099C470.977 301.513 470.666 301.88 470.28 302.175C469.894 302.47 469.442 302.686 468.955 302.809C468.593 302.836 468.228 302.806 467.878 302.719Z" fill="#E0E0E0"/>
<path d="M343.394 326.636L300.77 326.461L300.734 333.54L343.358 333.715L343.394 326.636Z" fill="#4CAF4F"/>
<path opacity="0.1" d="M343.394 326.636L300.77 326.461L300.734 333.54L343.358 333.715L343.394 326.636Z" fill="black"/>
<path d="M467.549 370.074C467.884 370.038 468.216 369.983 468.543 369.909C469.004 369.777 469.429 369.557 469.789 369.265C470.149 368.973 470.436 368.615 470.631 368.215C470.891 367.609 470.993 366.957 470.93 366.31C470.93 365.575 470.93 364.81 470.93 363.925C470.93 362.2 470.93 360.206 470.93 357.926V348.402C471.009 347.713 470.84 347.019 470.449 346.423C470.031 345.822 469.391 345.376 468.643 345.163C467.818 345.024 466.977 344.979 466.14 345.028H442.292L304.159 344.563C303.416 344.564 302.699 344.81 302.141 345.254C301.583 345.698 301.223 346.311 301.126 346.977C301.126 348.477 301.126 349.977 301.126 351.477C301.126 354.476 301.126 357.476 301.126 360.476C301.126 361.975 301.126 363.475 301.126 364.975C301.065 365.671 301.098 366.371 301.226 367.06C301.424 367.672 301.852 368.202 302.435 368.56C303.044 368.919 303.766 369.088 304.49 369.039H311.7L348.375 369.219L410.473 369.564L452.335 369.864L463.721 369.984H452.335H410.473L348.375 369.819L311.7 369.684H304.49C303.593 369.739 302.702 369.523 301.955 369.069C301.201 368.597 300.65 367.903 300.397 367.105C300.248 366.343 300.204 365.567 300.264 364.795C300.264 363.295 300.264 361.795 300.264 360.296C300.264 357.296 300.264 354.296 300.264 351.297C300.264 349.797 300.264 348.297 300.264 346.723C300.382 345.866 300.84 345.078 301.555 344.506C302.269 343.935 303.189 343.619 304.142 343.618L442.276 344.308L466.124 344.473C467.012 344.424 467.903 344.479 468.775 344.638C469.636 344.892 470.363 345.427 470.814 346.138C471.242 346.798 471.428 347.565 471.344 348.327C471.344 349.032 471.344 349.737 471.344 350.412C471.344 353.127 471.344 355.616 471.344 357.911C471.344 360.206 471.344 362.14 471.344 363.91C471.344 364.765 471.344 365.56 471.344 366.295C471.408 366.966 471.288 367.64 470.996 368.26C470.781 368.673 470.47 369.04 470.084 369.335C469.698 369.63 469.246 369.847 468.759 369.969C468.37 370.09 467.956 370.126 467.549 370.074Z" fill="#E0E0E0"/>
<path d="M390.477 286.621L312.52 286.301L312.486 292.915L390.443 293.235L390.477 286.621Z" fill="#4CAF4F"/>
<path opacity="0.2" d="M390.477 286.621L312.52 286.301L312.486 292.915L390.443 293.235L390.477 286.621Z" fill="white"/>
<path d="M319.569 357.836C319.52 358.439 319.276 359.016 318.868 359.495C318.46 359.974 317.906 360.335 317.274 360.531C316.642 360.728 315.96 360.752 315.313 360.602C314.665 360.451 314.081 360.131 313.633 359.683C313.184 359.234 312.891 358.676 312.79 358.078C312.688 357.481 312.783 356.869 313.062 356.319C313.341 355.77 313.792 355.306 314.36 354.987C314.927 354.667 315.586 354.505 316.254 354.521C317.178 354.568 318.043 354.942 318.664 355.562C319.284 356.183 319.609 357 319.569 357.836Z" fill="#4CAF4F"/>
<path d="M330.124 357.881C330.157 358.304 330.093 358.728 329.937 359.128C329.78 359.527 329.535 359.893 329.215 360.203C328.896 360.513 328.509 360.76 328.08 360.929C327.65 361.098 327.187 361.186 326.719 361.186C326.25 361.186 325.787 361.098 325.357 360.929C324.928 360.76 324.541 360.513 324.222 360.203C323.903 359.893 323.657 359.527 323.501 359.128C323.344 358.728 323.28 358.304 323.313 357.881C323.28 357.458 323.344 357.034 323.501 356.634C323.657 356.235 323.903 355.869 324.222 355.559C324.541 355.249 324.928 355.001 325.357 354.832C325.787 354.663 326.25 354.576 326.719 354.576C327.187 354.576 327.65 354.663 328.08 354.832C328.509 355.001 328.896 355.249 329.215 355.559C329.535 355.869 329.78 356.235 329.937 356.634C330.093 357.034 330.157 357.458 330.124 357.881Z" fill="#4CAF4F"/>
<path d="M340.702 357.926C340.653 358.53 340.409 359.107 340.001 359.586C339.593 360.065 339.039 360.425 338.407 360.622C337.775 360.819 337.093 360.843 336.445 360.692C335.798 360.541 335.214 360.222 334.765 359.773C334.317 359.325 334.024 358.767 333.922 358.169C333.821 357.571 333.916 356.959 334.195 356.41C334.474 355.86 334.925 355.397 335.493 355.077C336.06 354.758 336.719 354.596 337.387 354.612C338.309 354.662 339.172 355.037 339.792 355.657C340.411 356.277 340.738 357.091 340.702 357.926Z" fill="#4CAF4F"/>
<path d="M351.26 357.971C351.211 358.574 350.968 359.151 350.56 359.631C350.152 360.11 349.598 360.47 348.965 360.667C348.333 360.863 347.651 360.888 347.004 360.737C346.357 360.586 345.773 360.267 345.324 359.818C344.876 359.37 344.582 358.812 344.481 358.214C344.38 357.616 344.474 357.004 344.753 356.455C345.033 355.905 345.484 355.442 346.051 355.122C346.619 354.802 347.277 354.641 347.946 354.657C348.867 354.707 349.731 355.082 350.35 355.702C350.97 356.321 351.297 357.136 351.26 357.971Z" fill="#4CAF4F"/>
<path d="M361.816 358.001C361.77 358.605 361.529 359.184 361.123 359.665C360.717 360.146 360.164 360.509 359.532 360.708C358.9 360.907 358.217 360.933 357.568 360.784C356.92 360.635 356.334 360.316 355.884 359.868C355.434 359.42 355.139 358.862 355.036 358.264C354.934 357.665 355.028 357.053 355.307 356.502C355.586 355.952 356.037 355.488 356.605 355.167C357.173 354.847 357.833 354.685 358.502 354.701C359.42 354.752 360.281 355.125 360.9 355.741C361.519 356.358 361.848 357.168 361.816 358.001Z" fill="#4CAF4F"/>
<path d="M372.39 358.046C372.345 358.647 372.107 359.223 371.704 359.703C371.302 360.183 370.754 360.546 370.126 360.747C369.499 360.949 368.82 360.98 368.173 360.837C367.527 360.694 366.94 360.383 366.487 359.942C366.033 359.501 365.731 358.95 365.619 358.356C365.507 357.762 365.589 357.152 365.855 356.6C366.122 356.047 366.561 355.578 367.118 355.249C367.676 354.919 368.327 354.745 368.993 354.746C369.926 354.777 370.808 355.142 371.445 355.761C372.082 356.379 372.422 357.201 372.39 358.046Z" fill="#4CAF4F"/>
<path d="M382.945 358.092C382.977 358.514 382.913 358.939 382.757 359.338C382.601 359.738 382.355 360.104 382.036 360.414C381.716 360.724 381.33 360.971 380.9 361.14C380.471 361.309 380.007 361.396 379.539 361.396C379.071 361.396 378.607 361.309 378.178 361.14C377.748 360.971 377.362 360.724 377.042 360.414C376.723 360.104 376.477 359.738 376.321 359.338C376.165 358.939 376.101 358.514 376.133 358.092C376.101 357.669 376.165 357.244 376.321 356.845C376.477 356.445 376.723 356.079 377.042 355.769C377.362 355.459 377.748 355.212 378.178 355.043C378.607 354.874 379.071 354.787 379.539 354.787C380.007 354.787 380.471 354.874 380.9 355.043C381.33 355.212 381.716 355.459 382.036 355.769C382.355 356.079 382.601 356.445 382.757 356.845C382.913 357.244 382.977 357.669 382.945 358.092Z" fill="#4CAF4F"/>
<path d="M393.5 358.136C393.454 358.737 393.216 359.313 392.814 359.793C392.411 360.273 391.863 360.636 391.236 360.838C390.608 361.039 389.929 361.07 389.283 360.927C388.636 360.784 388.05 360.473 387.596 360.032C387.142 359.592 386.841 359.04 386.728 358.447C386.616 357.853 386.698 357.242 386.965 356.69C387.231 356.138 387.67 355.668 388.227 355.339C388.785 355.01 389.437 354.835 390.102 354.837C391.036 354.868 391.918 355.233 392.554 355.851C393.191 356.47 393.531 357.291 393.5 358.136Z" fill="#4CAF4F"/>
<path d="M404.058 358.181C404.013 358.785 403.772 359.364 403.365 359.845C402.959 360.326 402.406 360.689 401.774 360.888C401.142 361.087 400.459 361.113 399.811 360.964C399.162 360.815 398.576 360.496 398.126 360.048C397.676 359.6 397.381 359.042 397.279 358.444C397.176 357.845 397.27 357.233 397.549 356.682C397.828 356.132 398.279 355.668 398.847 355.347C399.415 355.027 400.075 354.865 400.744 354.881C401.662 354.932 402.523 355.305 403.142 355.921C403.762 356.538 404.09 357.349 404.058 358.181Z" fill="#4CAF4F"/>
<g opacity="0.2">
<path d="M319.569 357.836C319.52 358.439 319.276 359.016 318.868 359.495C318.46 359.975 317.906 360.335 317.274 360.532C316.642 360.728 315.96 360.753 315.313 360.602C314.665 360.451 314.081 360.131 313.633 359.683C313.184 359.234 312.891 358.677 312.79 358.079C312.688 357.481 312.783 356.869 313.062 356.32C313.341 355.77 313.792 355.307 314.36 354.987C314.927 354.667 315.586 354.505 316.254 354.521C317.178 354.568 318.043 354.942 318.664 355.563C319.284 356.183 319.609 357 319.569 357.836Z" fill="white"/>
<path d="M330.124 357.881C330.157 358.304 330.093 358.728 329.937 359.128C329.78 359.527 329.535 359.893 329.215 360.203C328.896 360.513 328.509 360.76 328.08 360.929C327.65 361.098 327.187 361.186 326.719 361.186C326.25 361.186 325.787 361.098 325.357 360.929C324.928 360.76 324.541 360.513 324.222 360.203C323.903 359.893 323.657 359.527 323.501 359.128C323.344 358.728 323.28 358.304 323.313 357.881C323.28 357.458 323.344 357.034 323.501 356.634C323.657 356.235 323.903 355.869 324.222 355.559C324.541 355.249 324.928 355.001 325.357 354.832C325.787 354.663 326.25 354.576 326.719 354.576C327.187 354.576 327.65 354.663 328.08 354.832C328.509 355.001 328.896 355.249 329.215 355.559C329.535 355.869 329.78 356.235 329.937 356.634C330.093 357.034 330.157 357.458 330.124 357.881Z" fill="white"/>
<path d="M340.698 357.926C340.649 358.529 340.405 359.106 339.997 359.585C339.589 360.064 339.035 360.424 338.403 360.621C337.771 360.818 337.089 360.842 336.442 360.691C335.794 360.541 335.21 360.221 334.762 359.773C334.313 359.324 334.02 358.766 333.918 358.168C333.817 357.57 333.912 356.959 334.191 356.409C334.47 355.859 334.921 355.396 335.489 355.076C336.056 354.757 336.715 354.595 337.383 354.611C338.305 354.661 339.168 355.037 339.788 355.656C340.407 356.276 340.734 357.09 340.698 357.926Z" fill="white"/>
<path d="M351.26 357.971C351.211 358.574 350.968 359.151 350.56 359.631C350.152 360.11 349.598 360.47 348.965 360.667C348.333 360.863 347.651 360.888 347.004 360.737C346.357 360.586 345.773 360.267 345.324 359.818C344.876 359.37 344.582 358.812 344.481 358.214C344.38 357.616 344.474 357.004 344.753 356.455C345.033 355.905 345.484 355.442 346.051 355.122C346.619 354.802 347.277 354.641 347.946 354.657C348.867 354.707 349.731 355.082 350.35 355.702C350.97 356.321 351.297 357.136 351.26 357.971Z" fill="white"/>
<path d="M361.816 358.001C361.77 358.605 361.529 359.184 361.123 359.665C360.717 360.147 360.164 360.509 359.532 360.708C358.9 360.907 358.217 360.934 357.568 360.784C356.92 360.635 356.334 360.316 355.884 359.868C355.434 359.42 355.139 358.862 355.036 358.264C354.934 357.665 355.028 357.053 355.307 356.502C355.586 355.952 356.037 355.488 356.605 355.168C357.173 354.847 357.833 354.685 358.502 354.702C359.42 354.752 360.281 355.125 360.9 355.741C361.519 356.358 361.848 357.169 361.816 358.001Z" fill="white"/>
<path d="M372.39 358.046C372.345 358.647 372.107 359.223 371.704 359.703C371.302 360.183 370.754 360.546 370.126 360.747C369.499 360.949 368.82 360.98 368.173 360.837C367.527 360.694 366.94 360.383 366.487 359.942C366.033 359.501 365.731 358.95 365.619 358.356C365.507 357.762 365.589 357.152 365.855 356.6C366.122 356.047 366.561 355.578 367.118 355.249C367.676 354.919 368.327 354.745 368.993 354.746C369.926 354.777 370.808 355.142 371.445 355.761C372.082 356.379 372.422 357.201 372.39 358.046Z" fill="white"/>
<path d="M382.945 358.091C382.977 358.513 382.913 358.938 382.757 359.337C382.601 359.737 382.355 360.103 382.036 360.413C381.716 360.723 381.33 360.97 380.9 361.139C380.471 361.308 380.007 361.395 379.539 361.395C379.071 361.395 378.607 361.308 378.178 361.139C377.748 360.97 377.362 360.723 377.042 360.413C376.723 360.103 376.477 359.737 376.321 359.337C376.165 358.938 376.101 358.513 376.133 358.091C376.101 357.668 376.165 357.243 376.321 356.844C376.477 356.444 376.723 356.078 377.042 355.768C377.362 355.458 377.748 355.211 378.178 355.042C378.607 354.873 379.071 354.786 379.539 354.786C380.007 354.786 380.471 354.873 380.9 355.042C381.33 355.211 381.716 355.458 382.036 355.768C382.355 356.078 382.601 356.444 382.757 356.844C382.913 357.243 382.977 357.668 382.945 358.091Z" fill="white"/>
<path d="M393.5 358.136C393.454 358.737 393.216 359.313 392.814 359.793C392.411 360.273 391.863 360.636 391.236 360.838C390.608 361.039 389.929 361.07 389.283 360.927C388.636 360.784 388.05 360.473 387.596 360.032C387.142 359.592 386.841 359.04 386.728 358.447C386.616 357.853 386.698 357.242 386.965 356.69C387.231 356.138 387.67 355.668 388.227 355.339C388.785 355.01 389.437 354.835 390.102 354.837C391.036 354.868 391.918 355.233 392.554 355.851C393.191 356.47 393.531 357.291 393.5 358.136Z" fill="white"/>
<path d="M404.058 358.181C404.013 358.785 403.772 359.364 403.365 359.845C402.959 360.327 402.406 360.689 401.774 360.888C401.142 361.087 400.459 361.114 399.811 360.964C399.162 360.815 398.576 360.497 398.126 360.048C397.676 359.6 397.381 359.042 397.279 358.444C397.176 357.846 397.27 357.233 397.549 356.683C397.828 356.132 398.279 355.668 398.847 355.348C399.415 355.028 400.075 354.866 400.744 354.882C401.662 354.932 402.523 355.305 403.142 355.922C403.762 356.538 404.09 357.349 404.058 358.181Z" fill="white"/>
</g>
<path d="M389.057 141.671C390.208 141.212 391.185 140.457 391.866 139.499C392.546 138.542 392.901 137.425 392.885 136.286C392.928 135.546 392.804 134.806 392.521 134.111C392.237 133.416 391.8 132.78 391.237 132.242C390.673 131.705 389.995 131.277 389.242 130.984C388.49 130.692 387.68 130.541 386.861 130.541C386.042 130.541 385.232 130.692 384.48 130.984C383.727 131.277 383.049 131.705 382.485 132.242C381.921 132.78 381.485 133.416 381.201 134.111C380.918 134.806 380.794 135.546 380.837 136.286C380.812 137.436 381.163 138.567 381.848 139.536C382.532 140.505 383.518 141.268 384.682 141.731C375.401 142.99 375.815 152.109 375.815 152.109L397.757 152.199C397.757 152.199 398.271 142.915 389.057 141.671Z" fill="#4CAF4F"/>
<path opacity="0.1" d="M389.057 141.671C390.208 141.212 391.185 140.457 391.866 139.499C392.546 138.542 392.901 137.425 392.885 136.286C392.928 135.546 392.804 134.806 392.521 134.111C392.237 133.416 391.8 132.78 391.237 132.242C390.673 131.705 389.995 131.277 389.242 130.984C388.49 130.692 387.68 130.541 386.861 130.541C386.042 130.541 385.232 130.692 384.48 130.984C383.727 131.277 383.049 131.705 382.485 132.242C381.921 132.78 381.485 133.416 381.201 134.111C380.918 134.806 380.794 135.546 380.837 136.286C380.812 137.436 381.163 138.567 381.848 139.536C382.532 140.505 383.518 141.268 384.682 141.731C375.401 142.99 375.815 152.109 375.815 152.109L397.757 152.199C397.757 152.199 398.271 142.915 389.057 141.671Z" fill="black"/>
<path d="M424.713 158.08L346.508 157.759L346.465 166.218L424.671 166.539L424.713 158.08Z" fill="#4CAF4F"/>
<path opacity="0.2" d="M424.713 158.08L346.508 157.759L346.465 166.218L424.671 166.539L424.713 158.08Z" fill="white"/>
<path d="M137.204 201.917H136.425L134.171 202.067C132.951 202.134 131.738 202.279 130.541 202.502C129.766 202.601 128.997 202.736 128.238 202.907L125.669 203.552C121.297 204.766 117.172 206.615 113.455 209.026C108.544 212.252 104.444 216.382 101.423 221.145C99.6479 223.89 98.2351 226.815 97.2138 229.859C96.1407 233.167 95.5229 236.582 95.3743 240.027C95.2755 241.837 95.3087 243.651 95.4737 245.456C95.4737 246.371 95.7554 247.286 95.888 248.216C95.9995 249.153 96.1935 250.081 96.4681 250.991C97.9583 257.009 100.982 262.629 105.298 267.402C109.614 272.175 115.103 275.969 121.327 278.482C125.832 280.241 130.66 281.223 135.563 281.376C140.627 281.629 145.696 280.971 150.478 279.442L151.937 278.947H152.136L152.301 279.037L173.2 288.635L172.586 289.115C170.349 282.846 168.195 276.772 166.106 270.938V270.713L166.289 270.548C171.358 265.927 175.122 260.268 177.26 254.05C179.196 248.366 179.762 242.372 178.917 236.473C178.166 231.23 176.303 226.168 173.432 221.565C170.956 217.61 167.763 214.061 163.985 211.066C160.869 208.696 157.419 206.709 153.727 205.157C150.933 204.066 148.023 203.237 145.043 202.682L141.728 202.187L139.325 202.022L137.867 201.932H137.369C137.535 201.916 137.701 201.916 137.867 201.932H139.342L141.745 202.022L145.059 202.457C148.077 202.972 151.026 203.771 153.859 204.842C157.615 206.375 161.127 208.358 164.3 210.736C168.147 213.718 171.408 217.268 173.945 221.235C176.899 225.888 178.818 231.018 179.597 236.338C180.511 242.328 179.985 248.426 178.055 254.215C175.903 260.562 172.082 266.342 166.918 271.058L167.018 270.668C169.106 276.502 171.277 282.576 173.531 288.83L173.846 289.745L172.901 289.31L152.003 279.727H152.368L150.876 280.222C146.002 281.774 140.839 282.446 135.679 282.201C130.67 282.029 125.741 281.011 121.145 279.202C112.377 275.804 105.083 269.898 100.379 262.389C98.2147 258.921 96.6339 255.181 95.6891 251.291C95.4304 250.358 95.2367 249.411 95.1091 248.456C94.9765 247.511 94.7611 246.581 94.7114 245.651C94.2628 240.315 94.8861 234.949 96.5509 229.814C97.5976 226.728 99.0498 223.767 100.876 220.995C103.969 216.189 108.155 212.033 113.157 208.801C116.935 206.384 121.129 204.549 125.57 203.372L128.172 202.772C128.937 202.611 129.712 202.486 130.492 202.397C131.701 202.195 132.925 202.074 134.154 202.037L136.425 201.962C136.683 201.931 136.943 201.916 137.204 201.917Z" fill="#4CAF4F"/>
<path d="M146.651 236.892H143.586L136.956 228.463V222.929C136.956 222.929 132.217 222.659 132.78 229.903C133.344 237.147 132.78 235.302 132.78 235.302C132.78 235.302 122.721 235.302 121.892 236.127C121.063 236.952 121.014 245.741 120.898 250.645C120.834 251.827 121.209 252.995 121.963 253.962C122.716 254.93 123.805 255.641 125.057 255.984C125.408 256.072 125.77 256.118 126.135 256.119C128.654 256.119 141.464 254.275 141.464 254.275H146.751L146.651 236.892Z" fill="#4CAF4F"/>
<path d="M155.419 235.408L153.53 254.365H148.293V235.798L155.419 235.408Z" fill="#4CAF4F"/>
<path d="M217.879 621.35V608.527L192.473 608.362L192.258 627.754L193.832 627.859C200.842 628.264 229.497 628.864 234.203 627.544C239.44 626.074 217.879 621.35 217.879 621.35Z" fill="#4CAF4F"/>
<path d="M234.799 626.344C234.799 626.554 225.286 626.734 213.569 626.734C201.853 626.734 192.34 626.554 192.34 626.344C192.34 626.134 201.853 625.954 213.569 625.954C225.286 625.954 234.799 626.134 234.799 626.344Z" fill="#263238"/>
<path d="M218.325 623.974C218.11 623.869 218.325 623.194 218.839 622.474C219.353 621.754 220.049 621.455 220.214 621.605C220.38 621.755 220.032 622.324 219.535 622.939C219.038 623.554 218.541 624.079 218.325 623.974Z" fill="#263238"/>
<path d="M219.951 624.814C219.719 624.814 219.835 623.974 220.332 623.179C220.829 622.385 221.492 621.905 221.674 622.025C221.857 622.145 221.558 622.82 221.094 623.524C220.63 624.229 220.166 624.889 219.951 624.814Z" fill="#263238"/>
<path d="M199.997 626.284C199.897 626.284 199.516 626.014 198.969 625.444C198.301 624.712 197.558 624.039 196.748 623.435C195.952 622.859 195.004 622.482 193.997 622.34C193.218 622.25 192.721 622.34 192.671 622.25C192.622 622.16 193.102 621.845 194.014 621.785C195.217 621.762 196.39 622.123 197.328 622.805C198.207 623.453 198.949 624.241 199.516 625.129C199.897 625.789 200.096 626.224 199.997 626.284Z" fill="#263238"/>
<path d="M218.411 621.559C218.527 621.739 218.096 622.189 217.367 622.429C216.638 622.669 215.992 622.579 215.959 622.429C215.925 622.279 216.439 621.964 217.069 621.754C217.699 621.544 218.279 621.379 218.411 621.559Z" fill="#263238"/>
<path d="M218.011 620.315C218.011 620.54 217.348 620.72 216.486 620.735C215.624 620.75 214.945 620.57 214.961 620.36C214.978 620.15 215.657 619.955 216.486 619.94C217.315 619.925 217.977 620.105 218.011 620.315Z" fill="#263238"/>
<path d="M280.438 621.35V608.527L255.032 608.362L254.816 627.559L256.391 627.664C263.401 628.069 292.072 628.864 296.762 627.544C301.999 626.074 280.438 621.35 280.438 621.35Z" fill="#4CAF4F"/>
<path d="M297.364 626.373C297.364 626.583 287.868 626.763 276.135 626.763C264.401 626.763 254.922 626.583 254.922 626.373C254.922 626.163 264.418 625.983 276.135 625.983C287.852 625.983 297.364 626.163 297.364 626.373Z" fill="#263238"/>
<path d="M280.892 623.974C280.693 623.869 280.892 623.194 281.406 622.474C281.92 621.754 282.616 621.455 282.782 621.605C282.947 621.755 282.599 622.324 282.102 622.939C281.605 623.554 281.108 624.079 280.892 623.974Z" fill="#263238"/>
<path d="M282.513 624.814C282.298 624.814 282.397 623.974 282.911 623.179C283.425 622.385 284.071 621.905 284.253 622.025C284.436 622.145 284.121 622.82 283.657 623.524C283.193 624.229 282.745 624.889 282.513 624.814Z" fill="#263238"/>
<path d="M262.559 626.284C262.46 626.284 262.095 626.014 261.532 625.444C260.864 624.712 260.12 624.039 259.311 623.435C258.515 622.859 257.567 622.482 256.56 622.34C255.797 622.25 255.284 622.34 255.234 622.25C255.184 622.16 255.665 621.845 256.576 621.785C257.779 621.762 258.953 622.123 259.891 622.805C260.774 623.449 261.516 624.237 262.078 625.129C262.46 625.789 262.659 626.224 262.559 626.284Z" fill="#263238"/>
<path d="M280.97 621.559C281.086 621.739 280.655 622.189 279.926 622.429C279.197 622.669 278.55 622.579 278.517 622.429C278.484 622.279 278.998 621.964 279.628 621.754C280.257 621.544 280.837 621.379 280.97 621.559Z" fill="#263238"/>
<path d="M280.607 620.315C280.607 620.54 279.944 620.72 279.083 620.735C278.221 620.75 277.558 620.57 277.575 620.36C277.591 620.15 278.254 619.955 279.083 619.94C279.911 619.925 280.607 620.105 280.607 620.315Z" fill="#263238"/>
<path d="M374.044 240.552C373.381 239.937 371.74 240.237 371.74 240.237C371.905 239.373 371.905 238.491 371.74 237.627C371.442 236.787 369.354 236.952 369.354 236.952C369.258 236.245 369.258 235.53 369.354 234.823C369.371 234.666 369.333 234.508 369.247 234.371C369.161 234.235 369.031 234.125 368.873 234.058C367.885 233.693 366.824 233.52 365.758 233.548C364.482 232.723 369.652 226.169 371.575 224.069C373.497 221.969 373.149 220.335 371.442 220.335C370.266 220.335 364.233 226.634 362.377 228.749C360.521 230.863 355.599 236.742 355.433 232.048C355.267 227.354 353.179 223.814 351.87 223.214C350.561 222.614 349.169 224.024 349.881 225.329C350.507 226.811 350.898 228.367 351.041 229.948C351.221 231.208 351.16 232.487 350.859 233.728C350.309 236.037 349.561 238.303 348.622 240.507H348.489C348.489 240.507 312.327 271.898 309.709 274.132C307.372 276.142 260.372 271.748 250.942 270.848C247.738 270.423 244.502 270.223 241.264 270.248C237.17 270.413 236.441 270.938 232.364 270.983C222.068 271.086 211.796 271.903 201.639 273.427C197.039 274.135 192.743 275.972 189.218 278.739C185.694 281.505 183.076 285.095 181.652 289.115C172.156 315.962 150.644 379.508 146.849 415.203C143.982 419.909 141.393 424.751 139.093 429.706C136.425 436.275 137.071 436.5 137.966 436.65C140.386 437.055 143.137 425.267 144.165 428.116C145.192 430.966 138.944 442.169 141.48 442.499C144.794 442.919 147.429 430.501 147.744 429.511C148.059 428.521 149.7 428.836 149.402 429.766C148.921 431.086 144.264 445.079 147.512 445.529C149.302 445.769 149.501 442.814 149.501 442.814C149.501 442.814 152.816 429.421 154.324 429.691C155.832 429.961 154.224 437.865 153.462 440.504C152.7 443.144 153.76 444.479 155.318 443.834C156.379 443.384 158.914 435.36 159.61 432.751C160.306 430.141 162.046 422.912 164.383 427.096C166.72 431.281 170.267 433.71 171.725 433.77C172.054 433.736 172.363 433.614 172.614 433.419C172.865 433.224 173.046 432.965 173.134 432.676C173.221 432.388 173.211 432.082 173.104 431.798C172.998 431.515 172.8 431.267 172.537 431.086C171.283 429.977 170.206 428.715 169.338 427.336C168.565 426.262 168.005 425.075 167.681 423.827C167.013 421.339 166.625 418.796 166.521 416.238L166.256 414.738C169.968 398.105 180.658 349.287 196.087 318.106L202.418 329.895L205.169 338.623L188.298 376.313L260.256 375.458L249.517 338.054L262.56 299.059C276.663 299.344 312.874 299.824 318.907 297.349C326.497 294.35 365.758 249.476 365.758 249.476C368.317 247.676 370.768 245.754 373.099 243.716C373.099 243.716 375.486 241.902 374.044 240.552Z" fill="#FFBE9D"/>
<path d="M185.133 348.462C187.221 342.013 197.943 310.128 197.943 310.128C197.943 310.128 203.214 336.119 201.822 339.254C200.541 341.937 199.028 344.525 197.297 346.993C185.133 363.745 186.724 372.129 186.724 372.129L260.224 370.104C260.389 360.806 254.307 339.179 253.048 335.729C251.788 332.28 255.981 320.986 255.981 320.986C255.981 320.986 264.267 313.352 263.969 309.423C263.812 305.893 263.329 302.381 262.527 298.924L307.273 300.424L305.865 272.978L241.596 267.158C239.359 272.873 219.123 270.068 219.123 270.068C197.281 270.728 195.922 274.357 186.84 280.747C177.758 287.136 162.727 341.968 162.727 341.968L185.133 348.462Z" fill="#4CAF4F"/>
<path d="M228.584 341.968C227.31 342.174 226.013 342.235 224.723 342.148C222.32 342.148 219.022 341.998 215.392 341.668C211.763 341.338 208.482 340.874 206.145 340.454C204.856 340.303 203.593 340.011 202.383 339.584C203.679 339.584 204.971 339.695 206.244 339.914C208.598 340.184 211.862 340.559 215.475 340.889C219.088 341.219 222.369 341.443 224.739 341.593C226.031 341.608 227.319 341.734 228.584 341.968Z" fill="#263238"/>
<path d="M233.625 336.314C232.351 336.879 231.004 337.297 229.615 337.559C223.003 339.131 216.181 339.863 209.346 339.734C207.932 339.775 206.517 339.654 205.137 339.374C206.533 339.214 207.94 339.149 209.346 339.179C211.948 339.104 215.528 338.939 219.472 338.519C223.416 338.099 226.93 337.499 229.416 337.019C230.796 336.685 232.204 336.45 233.625 336.314Z" fill="#263238"/>
<path d="M258.351 311.087C258.317 312.231 258.145 313.367 257.837 314.477C257.406 316.561 256.743 319.411 255.898 322.531C255.053 325.65 254.241 328.53 253.511 330.479C253.218 331.596 252.784 332.677 252.219 333.704C252.311 332.564 252.545 331.437 252.915 330.345C253.545 328.005 254.257 325.305 255.053 322.351C255.848 319.396 256.611 316.696 257.24 314.357C257.465 313.231 257.837 312.133 258.351 311.087Z" fill="#263238"/>
<path d="M185.907 344.638C182.073 344.102 178.289 343.305 174.588 342.253C170.806 341.453 167.095 340.4 163.484 339.103C167.317 339.648 171.1 340.445 174.804 341.488C178.586 342.285 182.298 343.338 185.907 344.638Z" fill="#263238"/>
<path d="M263.323 298.595C262.698 298.692 262.059 298.692 261.434 298.595C259.703 298.434 258.003 298.066 256.379 297.5C253.668 296.578 251.2 295.153 249.134 293.316C247.067 291.48 245.448 289.273 244.38 286.836C243.2 284.156 242.696 281.271 242.905 278.392C242.979 276.018 243.764 273.706 245.176 271.703C246.169 270.354 247.652 269.362 249.369 268.899C249.827 268.784 250.302 268.729 250.777 268.734C251.109 268.734 251.275 268.734 251.275 268.734C251.275 268.734 250.579 268.734 249.468 269.139C247.894 269.665 246.558 270.652 245.673 271.943C243.419 275.153 242.789 281.017 245.193 286.491C246.311 289.072 248.062 291.39 250.313 293.27C252.158 294.809 254.283 296.047 256.594 296.93C258.763 297.706 261.02 298.264 263.323 298.595Z" fill="#263238"/>
<path d="M301.949 299.884C301.535 295.285 301.402 290.669 301.552 286.056C301.422 281.448 301.577 276.836 302.016 272.243C302.431 276.837 302.563 281.449 302.413 286.056C302.553 290.67 302.398 295.287 301.949 299.884Z" fill="#263238"/>
<path d="M241.167 268.838C241.349 265.494 241.73 261.714 241.73 261.714C241.73 261.714 250.878 260.799 251.425 252.251C251.972 243.702 251.425 223.979 251.425 223.979L234.853 216.301L216.457 229.394L219.291 272.138L236.162 273.113C237.452 273.145 238.703 272.713 239.641 271.912C240.579 271.111 241.128 270.005 241.167 268.838Z" fill="#FFBE9D"/>
<path d="M242.807 245.486C242.807 245.486 242.807 245.651 242.658 245.846C242.535 245.988 242.375 246.1 242.193 246.173C242.011 246.246 241.813 246.278 241.614 246.266C240.553 246.266 239.526 245.156 239.161 243.866C238.988 243.241 238.988 242.587 239.161 241.962C239.195 241.689 239.304 241.428 239.478 241.203C239.651 240.977 239.884 240.795 240.156 240.672C240.378 240.589 240.629 240.589 240.852 240.672C241.017 240.746 241.151 240.867 241.233 241.017C241.349 241.272 241.233 241.437 241.233 241.422C241.233 241.407 241.233 241.272 241.067 241.122C240.98 241.014 240.853 240.94 240.709 240.912C240.566 240.884 240.416 240.906 240.288 240.972C240.085 241.083 239.916 241.239 239.797 241.425C239.678 241.611 239.614 241.822 239.609 242.037C239.469 242.595 239.469 243.174 239.609 243.731C239.94 244.901 240.835 245.846 241.631 245.936C241.786 245.955 241.944 245.945 242.096 245.906C242.247 245.868 242.387 245.801 242.509 245.711C242.708 245.591 242.774 245.471 242.807 245.486Z" fill="#EB996E"/>
<path d="M257.111 219.36C255.834 215.43 251.211 213.481 247.001 212.401C240.588 210.751 233.66 210.031 227.396 212.116C221.131 214.2 213.607 217.86 213.607 224.114C209.912 223.844 207.79 226.769 206.332 230.398C205.399 232.609 204.841 234.935 204.675 237.297C204.211 245.486 201.675 256.795 195.808 262.794C192.494 266.138 187.903 268.448 186.014 272.617C184.356 276.232 185.218 280.521 183.677 284.181C182.301 287.405 179.269 289.7 177.048 292.505C174.785 295.686 173.454 299.336 173.179 303.112C172.903 306.887 173.693 310.664 175.474 314.087C177.267 317.422 179.792 320.392 182.895 322.816C185.998 325.24 189.613 327.066 193.521 328.185C201.262 330.316 209.517 330.389 217.303 328.395C223.146 327.13 228.597 324.685 233.246 321.241C238.003 317.725 241.27 312.829 242.493 307.383C243.67 301.264 241.781 295.039 240.372 288.95C235.964 269.708 237.223 268.703 242.792 250.84C242.924 250.525 242.991 250.196 243.09 249.881C243.189 249.566 243.239 249.416 243.305 249.176C243.464 248.47 243.547 247.751 243.554 247.031C242.741 247.305 241.858 247.363 241.01 247.198C240.161 247.033 239.382 246.653 238.765 246.101C238.145 245.513 237.714 244.784 237.515 243.992C237.317 243.2 237.359 242.374 237.638 241.602C238.029 240.757 238.611 239.996 239.348 239.369C240.084 238.741 240.958 238.26 241.913 237.957C243.753 237.267 245.725 236.907 247.531 236.142C251.36 234.493 254.011 231.073 255.818 227.489C257.303 225.004 257.761 222.122 257.111 219.36Z" fill="#263238"/>
<path d="M243.466 245.891C243.816 246.36 244.105 246.863 244.328 247.391C244.825 248.336 245.488 249.671 246.217 251.216L246.349 251.501H246.001L244.344 251.636C243.201 251.636 242.239 251.831 241.112 251.816C241.014 251.796 240.923 251.753 240.848 251.693C240.773 251.633 240.715 251.556 240.682 251.471C240.632 251.334 240.632 251.187 240.682 251.051C240.72 250.849 240.77 250.648 240.831 250.451L241.129 249.386C241.279 248.676 241.512 247.982 241.825 247.316C241.794 248.04 241.678 248.759 241.477 249.461L241.245 250.526C241.162 250.886 241.013 251.441 241.245 251.396C242.074 251.396 243.25 251.231 244.344 251.171L246.001 251.036L245.786 251.366C245.073 249.866 244.477 248.456 244.129 247.481C243.823 246.983 243.6 246.448 243.466 245.891Z" fill="#4CAF4F"/>
<path d="M186.723 372.129L260.223 370.104L292.208 483.098L286.325 612.711H247.462L252.218 485.858L223.796 407.194L228.171 617.735L188.894 618.26L184.768 420.362C184.585 414.858 182.597 402.455 183.342 396.995L186.723 372.129Z" fill="#263238"/>
<path d="M233.573 408.799C232.37 408.867 231.163 408.802 229.977 408.604C227.756 408.364 224.724 407.944 221.393 407.344C218.061 406.744 215.078 406.054 212.924 405.499C211.772 405.27 210.658 404.907 209.609 404.42C209.609 404.195 215.012 405.364 221.641 406.579C228.27 407.794 233.607 408.574 233.573 408.799Z" fill="#455A64"/>
<path d="M285.929 605.602C285.929 605.812 277.128 605.992 266.273 605.992C255.418 605.992 246.602 605.812 246.602 605.602C246.602 605.392 255.402 605.212 266.273 605.212C277.145 605.212 285.929 605.377 285.929 605.602Z" fill="#455A64"/>
<path d="M227.827 612.261C227.827 612.486 219.276 612.651 208.735 612.651C198.195 612.651 189.66 612.486 189.66 612.261C189.66 612.036 198.212 611.871 208.735 611.871C219.259 611.871 227.827 612.051 227.827 612.261Z" fill="#455A64"/>
<path d="M222.749 611.721C222.517 611.721 221.49 565.722 220.446 508.985C219.402 452.247 218.788 406.219 219.004 406.219C219.219 406.219 220.28 452.202 221.307 508.97C222.335 565.737 222.998 611.721 222.749 611.721Z" fill="#455A64"/>
<path d="M280.707 605.602C280.689 605.397 280.689 605.192 280.707 604.987V603.187C280.707 601.567 280.839 599.243 280.939 596.288C281.171 590.289 281.502 581.575 281.917 570.897C282.811 549.42 284.071 519.814 285.446 487.133C285.446 486.818 285.446 486.518 285.446 486.248V486.353C276.746 454.858 268.874 426.271 263.156 405.589L256.527 381.128C255.765 378.263 255.185 376.028 254.77 374.469C254.572 373.734 254.439 373.164 254.323 372.729C254.258 372.534 254.22 372.332 254.207 372.129C254.293 372.318 254.36 372.514 254.406 372.714C254.538 373.134 254.704 373.704 254.936 374.424C255.384 375.923 256.03 378.203 256.859 381.053C258.516 386.842 260.853 395.181 263.769 405.454C269.537 426.121 277.492 454.633 286.308 486.173V486.278C286.308 486.548 286.308 486.863 286.308 487.163C284.833 519.844 283.491 549.435 282.513 570.912C281.999 581.605 281.568 590.259 281.27 596.288C281.104 599.288 280.972 601.567 280.889 603.187C280.889 603.952 280.79 604.552 280.773 604.987C280.775 605.193 280.753 605.4 280.707 605.602Z" fill="#455A64"/>
<path d="M268.029 483.609C265.237 484.439 262.362 485.017 259.444 485.334C255.864 485.889 252.815 486.279 251.44 486.339V486.039C251.887 486.159 252.119 486.234 252.119 486.294C252.119 486.354 251.837 486.294 251.373 486.294H250.379L251.373 486.024C252.666 485.679 255.715 485.109 259.295 484.524C262.166 483.96 265.091 483.654 268.029 483.609Z" fill="#455A64"/>
<path d="M267.348 487.913C264.763 488.02 262.173 487.915 259.609 487.598C257.02 487.55 254.441 487.294 251.902 486.833C257.082 486.451 262.295 486.815 267.348 487.913Z" fill="#455A64"/>
<path opacity="0.2" d="M186.41 374.513C187.281 375.525 188.377 376.359 189.628 376.961C190.879 377.563 192.256 377.92 193.669 378.008C196.629 378.325 199.623 378.275 202.569 377.858C221.544 375.953 241.647 374.198 260.225 370.104C236.178 371.319 210.772 370.914 186.725 372.129L186.476 373.988" fill="black"/>
<g opacity="0.2">
<path d="M211.184 405.185L224.74 452.788L223.795 407.194L211.184 405.185Z" fill="black"/>
</g>
</svg>
